<?xml version="1.0" encoding="utf-8"?>
<!-- Generator: Adobe Illustrator 22.0.1, SVG Export Plug-In . SVG Version: 6.00 Build 0)  -->
<svg version="1.1" id="Layer_1" xmlns="http://www.w3.org/2000/svg" xmlns:xlink="http://www.w3.org/1999/xlink" x="0px" y="0px"
	 viewBox="0 0 198.5 229" style="enable-background:new 0 0 198.5 229;" xml:space="preserve">
<style type="text/css">
	.st0{fill:#F3F3FA;stroke:#AAAADD;stroke-miterlimit:10;}
	.st1{fill:none;stroke:#EAEAEE;stroke-miterlimit:10;}
	.st2{fill:#F3FAF3;stroke:#AADDAA;stroke-miterlimit:10;}
	.st3{fill:#FAF3F3;}
	.st4{fill:#DDAAAA;}
	.st5{fill:#FEFEEE;stroke:#DDDDBB;stroke-miterlimit:10;}
</style>
<g>
	<path class="st0" d="M192.7,38.5L156.3,220c-0.1,0.7-0.8,1.2-1.5,1.2c-0.1,0-0.2,0-0.3,0l-48.9-9.9c-0.8-0.2-1.3-0.9-1.2-1.6
		s0.7-1.4,1.5-1.4h43.8c0.8,0,1.7-0.2,2.4-0.7c0.3-0.2,0.7-0.3,1-0.2l2.4,0.3l20.8-171.3c0.1-0.4,0.3-0.8,0.6-1
		c0.3-0.2,0.8-0.3,1.2-0.3l13.5,1.7L192.7,38.5z"/>
	<path class="st1" d="M191.5,37"/>
</g>
<g>
	<path class="st2" d="M156.7,210.8c-0.1,0-0.1,0-0.2,0l-3.9-0.5c-0.6-0.1-1.1-0.5-1.3-1.1c-0.1-0.6,0.1-1.3,0.6-1.6
		c1.2-0.8,2-2.2,2-3.6v-5.6c0-0.4,0.2-0.8,0.5-1.1c0.3-0.3,0.7-0.4,1.1-0.4l0.9,0l4.7-120.5c0-0.5,0.3-1,0.8-1.2l8.3-4.7V37
		l-6.5-3.1c-0.5-0.3-0.9-0.8-0.9-1.4l0.3-7.8c0-0.4,0.2-0.8,0.5-1.1c0.3-0.3,0.7-0.4,1.2-0.3l14.2,1.7c0.8,0.1,1.4,0.8,1.3,1.7
		l-22.2,182.8C158.1,210.3,157.5,210.8,156.7,210.8z"/>
</g>
<g>
	<g>
		<path class="st3" d="M164.4,33.6c-0.1,0-0.3,0-0.4-0.1l-10.3-4.9c-0.1-0.1-0.2-0.1-0.3-0.3c-0.9-1.1-2.3-1.7-3.7-1.7H30.3
			c-0.3,0-0.5-0.1-0.7-0.3c-0.2-0.2-0.3-0.5-0.3-0.7l0.7-16.5c0-0.3,0.1-0.5,0.3-0.7c0.2-0.2,0.4-0.3,0.7-0.3l134.2,5.3
			c0.5,0,1,0.5,1,1l-0.7,18.2c0,0.3-0.2,0.6-0.5,0.8C164.8,33.6,164.6,33.6,164.4,33.6z"/>
		<path class="st4" d="M30.9,8.7L30.9,8.7L165.1,14c0.3,0,0.5,0.2,0.5,0.5l-0.7,18.2c0,0.2-0.1,0.3-0.2,0.4c-0.1,0-0.2,0.1-0.3,0.1
			c-0.1,0-0.1,0-0.2,0l-10.3-4.9c-0.1,0-0.1-0.1-0.2-0.1c-1-1.2-2.5-1.9-4-1.9H30.3c-0.1,0-0.3-0.1-0.4-0.2
			c-0.1-0.1-0.1-0.2-0.1-0.4l0.7-16.5c0-0.1,0.1-0.3,0.2-0.3C30.7,8.7,30.8,8.7,30.9,8.7 M30.9,7.7c-0.4,0-0.7,0.1-1,0.4
			c-0.3,0.3-0.5,0.6-0.5,1l-0.7,16.5c0,0.4,0.1,0.8,0.4,1.1c0.3,0.3,0.7,0.5,1.1,0.5h119.4c1.3,0,2.4,0.6,3.3,1.5
			c0.1,0.2,0.3,0.3,0.5,0.4l10.3,4.9c0.2,0.1,0.4,0.1,0.6,0.1c0.3,0,0.5-0.1,0.8-0.2c0.4-0.3,0.7-0.7,0.7-1.2l0.7-18.2
			c0-0.8-0.6-1.5-1.4-1.6L30.9,7.7C31,7.7,30.9,7.7,30.9,7.7L30.9,7.7z"/>
	</g>
</g>
<g>
	<g>
		<path class="st3" d="M155.4,199.3c-0.5,0-1-0.5-1-1V80.5c0-0.4,0.2-0.7,0.5-0.9l7.2-4.1c0.2-0.1,0.3-0.1,0.5-0.1
			c0.2,0,0.4,0.1,0.5,0.1c0.3,0.2,0.5,0.5,0.5,0.9l-4.8,122c0,0.3-0.1,0.5-0.3,0.7c-0.2,0.2-0.4,0.3-0.7,0.3L155.4,199.3z"/>
		<path class="st4" d="M162.7,75.9c0.1,0,0.2,0,0.3,0.1c0.2,0.1,0.2,0.3,0.2,0.4l-4.8,122c0,0.1-0.1,0.3-0.2,0.3
			c-0.1,0.1-0.2,0.1-0.4,0.1c0,0,0,0,0,0l-2.4-0.1c-0.3,0-0.5-0.2-0.5-0.5V80.5c0-0.2,0.1-0.3,0.3-0.4l7.2-4.1
			C162.5,75.9,162.6,75.9,162.7,75.9 M162.7,74.9c-0.3,0-0.5,0.1-0.7,0.2l-7.2,4.1c-0.5,0.3-0.8,0.8-0.8,1.3v117.8
			c0,0.8,0.6,1.5,1.4,1.5l2.4,0.1c0,0,0,0,0.1,0c0.4,0,0.7-0.1,1-0.4c0.3-0.3,0.5-0.6,0.5-1l4.8-122c0-0.5-0.3-1.1-0.7-1.3
			C163.2,75,163,74.9,162.7,74.9L162.7,74.9z"/>
	</g>
</g>
<g>
	<path class="st5" d="M149.6,211.3H21.2c-4,0-7.3-3.3-7.3-7.3V31.5c0-4,3.3-7.3,7.3-7.3h128.5c2,0,4,0.9,5.3,2.4l17.4,8.2
		c0.5,0.2,0.9,0.8,0.9,1.4v35.2c0,0.5-0.3,1-0.8,1.3L157,81.4V204c0,2.5-1.2,4.8-3.3,6.1l0,0C152.4,210.9,151.1,211.3,149.6,211.3z
		 M152.8,208.8L152.8,208.8L152.8,208.8z"/>
</g>
<line class="st1" x1="192.5" y1="38" x2="192.5" y2="38"/>
</svg>
