<?xml version="1.0" encoding="utf-8"?>
<!-- Generator: Adobe Illustrator 22.0.1, SVG Export Plug-In . SVG Version: 6.00 Build 0)  -->
<svg version="1.1" id="Layer_1" xmlns="http://www.w3.org/2000/svg" xmlns:xlink="http://www.w3.org/1999/xlink" x="0px" y="0px"
	 viewBox="0 0 282 241.3" style="enable-background:new 0 0 282 241.3;" xml:space="preserve">
<style type="text/css">
	.st0{fill:#0C616D;}
	.st1{fill:#EFEDED;}
	.st2{fill:#E2DCDC;}
	.st3{fill:#BAAEAE;}
</style>
<g>
	<rect x="7.6" y="36.3" class="st0" width="264.4" height="164.9"/>
	<path class="st1" d="M137.8,28.8L137.8,28.8C99.2,12.3,55.6,12,16.9,28.1l-1.8,0.8v162l0.9-0.4c38.6-16.3,82.2-16.3,120.8,0
		l0.9,0.4L137.8,28.8L137.8,28.8z"/>
	<g>
		<path class="st2" d="M126.4,42.6C95,29.1,59.5,28.9,27.9,42l-1.4,0.6V52l1.4-0.6C59.5,38.3,95,38.5,126.4,52l0,0L126.4,42.6
			L126.4,42.6z"/>
		<path class="st2" d="M126.4,65.6C95,52.1,59.5,51.9,27.9,65l-1.4,0.6V75l1.4-0.6C59.5,61.2,95,61.5,126.4,75l0,0L126.4,65.6
			L126.4,65.6z"/>
		<path class="st2" d="M126.4,88.5C95,75,59.5,74.8,27.9,87.9l-1.4,0.6v9.4l1.4-0.6c31.6-13.1,67.1-12.9,98.6,0.6l0,0L126.4,88.5
			L126.4,88.5z"/>
		<path class="st2" d="M126.4,111.5C95,98,59.5,97.8,27.9,110.9l-1.4,0.6v9.4l1.4-0.6c31.6-13.1,67.1-12.9,98.6,0.6l0,0L126.4,111.5
			L126.4,111.5z"/>
		<path class="st2" d="M126.4,134.5c-31.4-13.5-67-13.7-98.5-0.6l-1.4,0.6v9.4l1.4-0.6c31.6-13.1,67.1-12.9,98.6,0.6l0,0
			L126.4,134.5L126.4,134.5z"/>
		<path class="st2" d="M126.4,157.5c-31.4-13.5-67-13.7-98.5-0.6l-1.4,0.6v9.4l1.4-0.6c31.6-13.1,67.1-12.9,98.6,0.6l0,0
			L126.4,157.5L126.4,157.5z"/>
	</g>
	<path class="st2" d="M259.9,28.8L259.9,28.8C221.3,12.3,177.7,12,139,28.1l-1.8,0.8v162l0.9-0.4c38.6-16.3,82.2-16.3,120.8,0
		l0.9,0.4L259.9,28.8L259.9,28.8z"/>
	<polygon class="st0" points="167.8,194.4 105.7,194.4 112.7,209.1 160.9,209.1 	"/>
	<g>
		<path class="st3" d="M247.9,42.6c-31.4-13.5-67-13.7-98.5-0.6l-1.4,0.6V52l1.4-0.6c31.6-13.1,67.1-12.9,98.6,0.6l0,0L247.9,42.6
			L247.9,42.6z"/>
		<path class="st3" d="M247.9,65.6c-31.4-13.5-67-13.7-98.5-0.6l-1.4,0.6V75l1.4-0.6c31.6-13.1,67.1-12.9,98.6,0.6l0,0L247.9,65.6
			L247.9,65.6z"/>
		<path class="st3" d="M247.9,88.5c-31.4-13.5-67-13.7-98.5-0.6l-1.4,0.6v9.4l1.4-0.6c31.6-13.1,67.1-12.9,98.6,0.6l0,0L247.9,88.5
			L247.9,88.5z"/>
		<path class="st3" d="M247.9,111.5c-31.4-13.5-67-13.7-98.5-0.6l-1.4,0.6v9.4l1.4-0.6c31.6-13.1,67.1-12.9,98.6,0.6l0,0
			L247.9,111.5L247.9,111.5z"/>
		<path class="st3" d="M247.9,134.5c-31.4-13.5-67-13.7-98.5-0.6l-1.4,0.6v9.4l1.4-0.6c31.6-13.1,67.1-12.9,98.6,0.6l0,0
			L247.9,134.5L247.9,134.5z"/>
		<path class="st3" d="M247.9,157.5c-31.4-13.5-67-13.7-98.5-0.6l-1.4,0.6v9.4l1.4-0.6c31.6-13.1,67.1-12.9,98.6,0.6l0,0
			L247.9,157.5L247.9,157.5z"/>
	</g>
</g>
</svg>
